<svg fill="none" height="24" viewBox="0 0 24 24" width="24"
    xmlns="http://www.w3.org/2000/svg">
    <path d="m21.9803 11.4104c-.34-5.79996-5.61-10.26995-11.68-9.26995-4.18001.69-7.53001 4.07998-8.18001 8.25995-.38 2.42.12002 4.71 1.21002 6.6l-.89001 3.31c-.2.75.48998 1.43 1.22998 1.22l3.26001-.9c1.48.87 3.21001 1.37 5.06001 1.37 5.64 0 10.32-4.97 9.99-10.59zm-5.1 4.31c-.09.18-.2.35-.34.51-.25.27-.52.47-.82.59-.3.13-.63.19-.98.19-.51 0-1.06-.1199-1.63-.3699-.58-.25-1.15-.5801-1.72-.9901-.58-.42-1.12-.89-1.64-1.4-.52-.52-.98003-1.07-1.40003-1.64-.41-.57-.73998-1.14-.97998-1.71s-.35998-1.11995-.35998-1.63995c0-.34001.05999-.67001.17999-.97001.12-.31.31002-.58999.58002-.83999.32-.32.66998-.47 1.03998-.47.13999 0 .27997.02999.40997.08999s.25002.15.34003.28l1.16 1.63999c.09.13.16.24.2.35.05.11.07.21.07.31 0 .12-.04.24002-.11.35997-.07.12-.16.24-.28.36l-.38.4c-.06.06-.08.12-.08.2 0 .04.01.08.02.12.02.04.03.07.04.1.09.17.25.38.47.64.23.26.47.53.73.79.27.27.53.51.8.74.26.22.48.37.65.46.03.01.06.03.09.04.04.02.08.02.13.02.09 0 .15-.03.21-.09l.38-.38c.13-.13.25-.22.36-.28.12-.07.23-.11.36-.11.1 0 .2.02.31.07s.23.11.35.2l1.66 1.18c.13.09.22.2.28.32.05.13.08.25.08.39-.06.17-.1.36-.18.54z" fill="#fbfbfb"/>
</svg>